<svg width="439" height="652" viewBox="0 0 439 652" fill="none" xmlns="http://www.w3.org/2000/svg">
<circle cx="219.5" cy="384.5" r="219.5" fill="#FFEDDD"/>
<path d="M411.5 220C419.5 164 381.5 123 381.5 123C381.5 123 347 73 289 81C231 89 212 95.5 193 115C174 134.5 174 157.5 156 182C138 206.5 141 227 152 242C163 257 176.783 270.216 198.5 274C218.844 277.545 250 262 250 262C254.347 268.518 255.387 273.654 250 290.5C243.132 305.024 221.5 328 205 352C188.5 376 182 410 182 410L195.5 480L232.5 548.5L323 538L364.5 475C364.5 475 345.5 398 341 381.5C336.5 365 345.122 350.935 350.5 332C364.108 284.09 403.5 276 411.5 220Z" fill="#F25757" stroke="#311919" stroke-width="3"/>
<path d="M341 381.5C336.5 365 350.5 332 350.5 332C350.5 332 320 363 317.5 375.5C315 388 321.125 406.175 332 426.5L341 381.5Z" fill="#D84040" fill-opacity="0.5"/>
<path d="M205 352C188.5 376 182 410 182 410H216.5C216.5 410 233 424.952 228.5 379.952C224 334.951 267 307.452 267 307.452C292.5 288.952 289.619 245.785 284 211L250 262C254.347 268.518 255.387 273.654 250 290.5C243.132 305.024 221.5 328 205 352Z" fill="#D84040" fill-opacity="0.5"/>
<path d="M276 82.5C275.674 82.545 275.349 82.5899 275.027 82.6346C266.938 83.8102 210.724 93.0837 193 126C173.885 161.5 128 233.5 189.5 192L156 235L129.5 223L156 182C174 157.5 174 134.5 193 115C211.893 95.6096 217.932 90.5567 275.027 82.6346C275.662 82.5424 276 82.5 276 82.5Z" fill="#D84040" fill-opacity="0.5"/>
<path d="M335.5 442.5C330 432 364.5 475 364.5 475L341 546.5C341 546.5 250 554 239.5 545C229 536 236.5 517 236.5 517L245.716 493.5C250 510 290.5 504 290.5 504C290.5 504 319.5 492 327.5 482.5C335.5 473 341 453 335.5 442.5Z" fill="#D84040" fill-opacity="0.5"/>
<path d="M274.5 141C274.5 141 269.5 140.5 259.5 150.5C249.5 160.5 247 170.5 252.5 177.5C258 184.5 284 186 284 186C284 186 306.5 189.5 317 175L326.5 155.5L274.5 141Z" fill="#D84040" fill-opacity="0.5"/>
<path d="M147 292C189.5 274.5 262.5 245.5 279.5 217.5C296.5 189.5 268.021 254.699 250.5 270.5C236.816 282.84 186 301 186 301L147 326.5C144.5 330.5 138.5 331 134 322.5C129.5 314 147 292 147 292Z" fill="#452525" stroke="#311919" stroke-width="3"/>
<path d="M133.5 315.5C135.773 325.255 138.672 327.647 147.5 325L186 301C217.509 289.071 239.5 281 254.5 267.5C269.5 254 270.5 231.5 270.5 231.5C270.5 231.5 285.5 205.5 284 215C282.5 224.5 268 262 268 262C268 262 261.5 273 254.5 278.5C247.5 284 181 315.5 181 315.5C181 315.5 156.5 334 147.5 333C138.5 332 133.5 328.5 133.5 325V315.5Z" fill="#554242"/>
<path d="M133.5 315.5C135.773 325.255 138.672 327.647 147.5 325L186 301C217.509 289.071 239.5 281 254.5 267.5C269.5 254 270.5 231.5 270.5 231.5C270.5 231.5 285.5 205.5 284 215C282.5 224.5 268 262 268 262C268 262 261.5 273 254.5 278.5C247.5 284 181 315.5 181 315.5C181 315.5 156.5 334 147.5 333C138.5 332 133.5 328.5 133.5 325M133.5 315.5C133.5 315.5 133.5 321.5 133.5 325M133.5 315.5V325" stroke="#311919" stroke-width="3"/>
<path d="M108.145 307.5C108.145 307.5 92.1454 319 88.1454 344C84.1454 369 75.6454 307.5 76.1454 300C76.6454 292.5 74.1454 290.5 79.6454 274C85.1454 257.5 93.6454 249 93.6454 249C93.6454 249 110.145 233 125.645 217C141.145 201 158.645 178 158.645 178C153.178 193.23 144.645 207.5 144.645 217C144.645 226.5 158.645 217 158.645 217L190.645 191.5L176.645 221C170.27 239.292 190.645 242 190.645 242C190.645 242 216.645 246.5 241.645 239.5C266.645 232.5 284.645 210 284.645 210L268 233.5L235.645 257.5L156.145 296.5L108.145 307.5Z" fill="#755F5F" stroke="#311919" stroke-width="3"/>
<path d="M106 308.5C106 308.5 90.9109 318.364 87 342.5C83.089 366.636 75.5 309.5 75.5 301C75.5 292.5 75.6115 286 80 273C84.3885 260 95.2525 249.546 95.2525 249.546C83.0693 268.879 84.2607 281.595 87 292.5C125.196 311.095 168.134 288.785 265.725 234.582L234.091 257.753L156.361 295.405L106 308.5Z" fill="#554242" fill-opacity="0.5"/>
<path d="M321 163.567C321 163.567 333 143.567 329 140.567C325 137.567 308.5 137.567 308.5 137.567C319 138.567 321 151.067 321 163.567Z" fill="#EDECE8"/>
<path d="M274 140.567C263 146.067 256 160.567 256 168.567C256 176.567 291 180.567 291 180.567C284 176.567 280 174.067 278 160.567C276 147.067 288 137.567 288 137.567C288 137.567 285 135.067 274 140.567Z" fill="#E8E6DB"/>
<path d="M291 180.567C304.5 180.567 315 176.067 321 163.567C321 151.067 319 138.567 308.5 137.567H288C288 137.567 276 147.067 278 160.567C280 174.067 284 176.567 291 180.567Z" fill="#3E2A2A"/>
<path d="M291 180.567L290.83 182.057L290.915 182.067H291V180.567ZM257.5 168.567C257.5 164.921 259.126 159.561 262.168 154.39C265.199 149.237 269.51 144.489 274.671 141.909L273.329 139.225C267.49 142.145 262.801 147.396 259.582 152.869C256.374 158.323 254.5 164.212 254.5 168.567L257.5 168.567ZM328.1 141.767C328.107 141.772 328.143 141.799 328.188 141.905C328.237 142.02 328.288 142.214 328.308 142.515C328.348 143.129 328.246 143.986 327.981 145.069C327.453 147.222 326.378 149.898 325.14 152.559C323.91 155.204 322.553 157.765 321.5 159.669C320.974 160.62 320.526 161.404 320.21 161.95C320.052 162.222 319.927 162.435 319.842 162.579C319.8 162.651 319.767 162.706 319.745 162.742C319.735 162.76 319.726 162.774 319.721 162.783C319.718 162.787 319.717 162.791 319.715 162.793C319.715 162.794 319.714 162.794 319.714 162.795C319.714 162.795 319.714 162.795 319.714 162.795C319.714 162.795 319.714 162.795 321 163.567C322.286 164.339 322.286 164.338 322.287 164.338C322.287 164.338 322.287 164.338 322.287 164.337C322.288 164.336 322.288 164.335 322.289 164.334C322.291 164.331 322.293 164.327 322.296 164.322C322.302 164.312 322.311 164.296 322.323 164.277C322.347 164.237 322.381 164.179 322.425 164.104C322.514 163.954 322.643 163.734 322.806 163.454C323.13 162.894 323.588 162.092 324.125 161.121C325.197 159.181 326.59 156.555 327.86 153.824C329.122 151.111 330.297 148.224 330.894 145.783C331.192 144.569 331.371 143.372 331.301 142.318C331.233 141.28 330.901 140.118 329.9 139.367L328.1 141.767ZM319.648 162.918C316.774 168.904 312.865 172.905 308.109 175.43C303.33 177.967 297.593 179.067 291 179.067V182.067C297.907 182.067 304.17 180.917 309.516 178.079C314.885 175.229 319.226 170.729 322.352 164.216L319.648 162.918ZM291 180.567C291.17 179.077 291.17 179.077 291.17 179.077C291.17 179.077 291.17 179.077 291.169 179.076C291.169 179.076 291.167 179.076 291.165 179.076C291.161 179.076 291.156 179.075 291.148 179.074C291.132 179.072 291.108 179.069 291.075 179.065C291.011 179.058 290.915 179.046 290.788 179.031C290.536 179 290.164 178.954 289.69 178.892C288.742 178.768 287.386 178.582 285.757 178.334C282.497 177.837 278.161 177.094 273.834 176.105C269.489 175.111 265.233 173.888 262.092 172.453C260.517 171.733 259.309 170.997 258.516 170.272C257.719 169.544 257.5 168.977 257.5 168.567L254.5 168.567C254.5 170.156 255.375 171.465 256.492 172.486C257.613 173.512 259.139 174.401 260.845 175.181C264.267 176.746 268.761 178.022 273.166 179.029C277.589 180.04 282.003 180.797 285.305 181.3C286.958 181.552 288.336 181.741 289.302 181.867C289.785 181.93 290.165 181.977 290.425 182.009C290.556 182.025 290.656 182.037 290.724 182.045C290.758 182.049 290.784 182.052 290.802 182.054C290.811 182.055 290.817 182.056 290.822 182.056C290.824 182.057 290.826 182.057 290.827 182.057C290.828 182.057 290.829 182.057 290.829 182.057C290.829 182.057 290.83 182.057 291 180.567ZM291.744 179.265C288.215 177.248 285.735 175.758 283.822 173.225C281.916 170.702 280.468 166.989 279.484 160.347L276.516 160.787C277.532 167.645 279.084 171.932 281.428 175.034C283.765 178.126 286.785 179.886 290.256 181.869L291.744 179.265ZM274.671 141.909C280.056 139.216 283.337 138.558 285.169 138.504C286.078 138.477 286.622 138.599 286.892 138.688C287.029 138.732 287.101 138.77 287.12 138.781C287.13 138.786 287.127 138.786 287.113 138.776C287.106 138.771 287.097 138.764 287.084 138.755C287.078 138.75 287.071 138.745 287.064 138.739C287.06 138.736 287.056 138.733 287.052 138.73C287.05 138.728 287.048 138.726 287.046 138.725C287.045 138.724 287.043 138.722 287.043 138.722C287.041 138.721 287.04 138.719 288 137.567C288.96 136.415 288.959 136.413 288.957 136.412C288.956 136.411 288.955 136.41 288.954 136.409C288.951 136.407 288.949 136.405 288.947 136.403C288.942 136.399 288.937 136.395 288.932 136.391C288.921 136.383 288.91 136.374 288.898 136.365C288.874 136.347 288.846 136.326 288.814 136.304C288.751 136.261 288.673 136.212 288.579 136.16C288.391 136.055 288.143 135.941 287.826 135.837C287.191 135.629 286.297 135.469 285.081 135.505C282.663 135.576 278.944 136.418 273.329 139.225L274.671 141.909ZM279.484 160.347C278.559 154.103 280.861 148.732 283.492 144.845C284.803 142.909 286.176 141.371 287.221 140.319C287.742 139.794 288.179 139.393 288.481 139.126C288.632 138.993 288.749 138.893 288.826 138.829C288.865 138.797 288.893 138.773 288.911 138.759C288.92 138.752 288.926 138.747 288.93 138.744C288.931 138.743 288.932 138.742 288.932 138.742C288.933 138.742 288.933 138.742 288.932 138.742C288.932 138.742 288.932 138.742 288.932 138.742C288.931 138.743 288.931 138.743 288 137.567C287.069 136.391 287.068 136.391 287.068 136.392C287.068 136.392 287.067 136.392 287.067 136.393C287.066 136.393 287.065 136.394 287.063 136.395C287.061 136.398 287.057 136.4 287.053 136.403C287.045 136.41 287.034 136.419 287.02 136.43C286.993 136.452 286.954 136.484 286.905 136.525C286.808 136.606 286.669 136.724 286.496 136.877C286.15 137.182 285.664 137.629 285.092 138.205C283.949 139.357 282.447 141.038 281.008 143.164C278.139 147.402 275.441 153.531 276.516 160.787L279.484 160.347ZM288 139.067C288.014 139.067 288.027 139.067 288.041 139.067C288.055 139.067 288.068 139.067 288.082 139.067C288.096 139.067 288.109 139.067 288.123 139.067C288.137 139.067 288.15 139.067 288.164 139.067C288.177 139.067 288.191 139.067 288.205 139.067C288.218 139.067 288.232 139.067 288.246 139.067C288.259 139.067 288.273 139.067 288.286 139.067C288.3 139.067 288.313 139.067 288.327 139.067C288.341 139.067 288.354 139.067 288.368 139.067C288.381 139.067 288.395 139.067 288.408 139.067C288.422 139.067 288.436 139.067 288.449 139.067C288.463 139.067 288.476 139.067 288.49 139.067C288.503 139.067 288.517 139.067 288.53 139.067C288.544 139.067 288.557 139.067 288.571 139.067C288.584 139.067 288.598 139.067 288.611 139.067C288.625 139.067 288.638 139.067 288.652 139.067C288.665 139.067 288.679 139.067 288.692 139.067C288.706 139.067 288.719 139.067 288.733 139.067C288.746 139.067 288.76 139.067 288.773 139.067C288.787 139.067 288.8 139.067 288.814 139.067C288.827 139.067 288.841 139.067 288.854 139.067C288.867 139.067 288.881 139.067 288.894 139.067C288.908 139.067 288.921 139.067 288.935 139.067C288.948 139.067 288.961 139.067 288.975 139.067C288.988 139.067 289.002 139.067 289.015 139.067C289.029 139.067 289.042 139.067 289.055 139.067C289.069 139.067 289.082 139.067 289.095 139.067C289.109 139.067 289.122 139.067 289.136 139.067C289.149 139.067 289.162 139.067 289.176 139.067C289.189 139.067 289.202 139.067 289.216 139.067C289.229 139.067 289.243 139.067 289.256 139.067C289.269 139.067 289.283 139.067 289.296 139.067C289.309 139.067 289.323 139.067 289.336 139.067C289.349 139.067 289.363 139.067 289.376 139.067C289.389 139.067 289.402 139.067 289.416 139.067C289.429 139.067 289.442 139.067 289.456 139.067C289.469 139.067 289.482 139.067 289.496 139.067C289.509 139.067 289.522 139.067 289.535 139.067C289.549 139.067 289.562 139.067 289.575 139.067C289.588 139.067 289.602 139.067 289.615 139.067C289.628 139.067 289.642 139.067 289.655 139.067C289.668 139.067 289.681 139.067 289.695 139.067C289.708 139.067 289.721 139.067 289.734 139.067C289.747 139.067 289.761 139.067 289.774 139.067C289.787 139.067 289.8 139.067 289.814 139.067C289.827 139.067 289.84 139.067 289.853 139.067C289.866 139.067 289.88 139.067 289.893 139.067C289.906 139.067 289.919 139.067 289.932 139.067C289.946 139.067 289.959 139.067 289.972 139.067C289.985 139.067 289.998 139.067 290.011 139.067C290.025 139.067 290.038 139.067 290.051 139.067C290.064 139.067 290.077 139.067 290.09 139.067C290.104 139.067 290.117 139.067 290.13 139.067C290.143 139.067 290.156 139.067 290.169 139.067C290.182 139.067 290.196 139.067 290.209 139.067C290.222 139.067 290.235 139.067 290.248 139.067C290.261 139.067 290.274 139.067 290.287 139.067C290.301 139.067 290.314 139.067 290.327 139.067C290.34 139.067 290.353 139.067 290.366 139.067C290.379 139.067 290.392 139.067 290.405 139.067C290.418 139.067 290.432 139.067 290.445 139.067C290.458 139.067 290.471 139.067 290.484 139.067C290.497 139.067 290.51 139.067 290.523 139.067C290.536 139.067 290.549 139.067 290.562 139.067C290.575 139.067 290.588 139.067 290.601 139.067C290.615 139.067 290.628 139.067 290.641 139.067C290.654 139.067 290.667 139.067 290.68 139.067C290.693 139.067 290.706 139.067 290.719 139.067C290.732 139.067 290.745 139.067 290.758 139.067C290.771 139.067 290.784 139.067 290.797 139.067C290.81 139.067 290.823 139.067 290.836 139.067C290.849 139.067 290.862 139.067 290.875 139.067C290.888 139.067 290.901 139.067 290.914 139.067C290.927 139.067 290.94 139.067 290.953 139.067C290.966 139.067 290.979 139.067 290.992 139.067C291.005 139.067 291.018 139.067 291.031 139.067C291.044 139.067 291.057 139.067 291.07 139.067C291.083 139.067 291.096 139.067 291.109 139.067C291.122 139.067 291.135 139.067 291.147 139.067C291.16 139.067 291.173 139.067 291.186 139.067C291.199 139.067 291.212 139.067 291.225 139.067C291.238 139.067 291.251 139.067 291.264 139.067C291.277 139.067 291.29 139.067 291.303 139.067C291.316 139.067 291.329 139.067 291.341 139.067C291.354 139.067 291.367 139.067 291.38 139.067C291.393 139.067 291.406 139.067 291.419 139.067C291.432 139.067 291.445 139.067 291.458 139.067C291.471 139.067 291.483 139.067 291.496 139.067C291.509 139.067 291.522 139.067 291.535 139.067C291.548 139.067 291.561 139.067 291.574 139.067C291.587 139.067 291.599 139.067 291.612 139.067C291.625 139.067 291.638 139.067 291.651 139.067C291.664 139.067 291.677 139.067 291.69 139.067C291.702 139.067 291.715 139.067 291.728 139.067C291.741 139.067 291.754 139.067 291.767 139.067C291.78 139.067 291.792 139.067 291.805 139.067C291.818 139.067 291.831 139.067 291.844 139.067C291.857 139.067 291.869 139.067 291.882 139.067C291.895 139.067 291.908 139.067 291.921 139.067C291.934 139.067 291.946 139.067 291.959 139.067C291.972 139.067 291.985 139.067 291.998 139.067C292.01 139.067 292.023 139.067 292.036 139.067C292.049 139.067 292.062 139.067 292.075 139.067C292.087 139.067 292.1 139.067 292.113 139.067C292.126 139.067 292.139 139.067 292.151 139.067C292.164 139.067 292.177 139.067 292.19 139.067C292.203 139.067 292.215 139.067 292.228 139.067C292.241 139.067 292.254 139.067 292.266 139.067C292.279 139.067 292.292 139.067 292.305 139.067C292.318 139.067 292.33 139.067 292.343 139.067C292.356 139.067 292.369 139.067 292.381 139.067C292.394 139.067 292.407 139.067 292.42 139.067C292.432 139.067 292.445 139.067 292.458 139.067C292.471 139.067 292.483 139.067 292.496 139.067C292.509 139.067 292.522 139.067 292.534 139.067C292.547 139.067 292.56 139.067 292.573 139.067C292.585 139.067 292.598 139.067 292.611 139.067C292.624 139.067 292.636 139.067 292.649 139.067C292.662 139.067 292.675 139.067 292.687 139.067C292.7 139.067 292.713 139.067 292.725 139.067C292.738 139.067 292.751 139.067 292.764 139.067C292.776 139.067 292.789 139.067 292.802 139.067C292.815 139.067 292.827 139.067 292.84 139.067C292.853 139.067 292.865 139.067 292.878 139.067C292.891 139.067 292.903 139.067 292.916 139.067C292.929 139.067 292.942 139.067 292.954 139.067C292.967 139.067 292.98 139.067 292.992 139.067C293.005 139.067 293.018 139.067 293.03 139.067C293.043 139.067 293.056 139.067 293.069 139.067C293.081 139.067 293.094 139.067 293.107 139.067C293.119 139.067 293.132 139.067 293.145 139.067C293.157 139.067 293.17 139.067 293.183 139.067C293.195 139.067 293.208 139.067 293.221 139.067C293.233 139.067 293.246 139.067 293.259 139.067C293.271 139.067 293.284 139.067 293.297 139.067C293.309 139.067 293.322 139.067 293.335 139.067C293.347 139.067 293.36 139.067 293.373 139.067C293.385 139.067 293.398 139.067 293.411 139.067C293.423 139.067 293.436 139.067 293.449 139.067C293.461 139.067 293.474 139.067 293.487 139.067C293.499 139.067 293.512 139.067 293.525 139.067C293.537 139.067 293.55 139.067 293.562 139.067C293.575 139.067 293.588 139.067 293.6 139.067C293.613 139.067 293.626 139.067 293.638 139.067C293.651 139.067 293.664 139.067 293.676 139.067C293.689 139.067 293.702 139.067 293.714 139.067C293.727 139.067 293.739 139.067 293.752 139.067C293.765 139.067 293.777 139.067 293.79 139.067C293.803 139.067 293.815 139.067 293.828 139.067C293.84 139.067 293.853 139.067 293.866 139.067C293.878 139.067 293.891 139.067 293.904 139.067C293.916 139.067 293.929 139.067 293.941 139.067C293.954 139.067 293.967 139.067 293.979 139.067C293.992 139.067 294.004 139.067 294.017 139.067C294.03 139.067 294.042 139.067 294.055 139.067C294.068 139.067 294.08 139.067 294.093 139.067C294.105 139.067 294.118 139.067 294.131 139.067C294.143 139.067 294.156 139.067 294.168 139.067C294.181 139.067 294.194 139.067 294.206 139.067C294.219 139.067 294.231 139.067 294.244 139.067C294.257 139.067 294.269 139.067 294.282 139.067C294.294 139.067 294.307 139.067 294.32 139.067C294.332 139.067 294.345 139.067 294.357 139.067C294.37 139.067 294.383 139.067 294.395 139.067C294.408 139.067 294.42 139.067 294.433 139.067C294.446 139.067 294.458 139.067 294.471 139.067C294.483 139.067 294.496 139.067 294.508 139.067C294.521 139.067 294.534 139.067 294.546 139.067C294.559 139.067 294.571 139.067 294.584 139.067C294.597 139.067 294.609 139.067 294.622 139.067C294.634 139.067 294.647 139.067 294.659 139.067C294.672 139.067 294.685 139.067 294.697 139.067C294.71 139.067 294.722 139.067 294.735 139.067C294.748 139.067 294.76 139.067 294.773 139.067C294.785 139.067 294.798 139.067 294.81 139.067C294.823 139.067 294.836 139.067 294.848 139.067C294.861 139.067 294.873 139.067 294.886 139.067C294.898 139.067 294.911 139.067 294.924 139.067C294.936 139.067 294.949 139.067 294.961 139.067C294.974 139.067 294.987 139.067 294.999 139.067C295.012 139.067 295.024 139.067 295.037 139.067C295.049 139.067 295.062 139.067 295.075 139.067C295.087 139.067 295.1 139.067 295.112 139.067C295.125 139.067 295.137 139.067 295.15 139.067C295.163 139.067 295.175 139.067 295.188 139.067C295.2 139.067 295.213 139.067 295.225 139.067C295.238 139.067 295.251 139.067 295.263 139.067C295.276 139.067 295.288 139.067 295.301 139.067C295.313 139.067 295.326 139.067 295.339 139.067C295.351 139.067 295.364 139.067 295.376 139.067C295.389 139.067 295.401 139.067 295.414 139.067C295.427 139.067 295.439 139.067 295.452 139.067C295.464 139.067 295.477 139.067 295.489 139.067C295.502 139.067 295.514 139.067 295.527 139.067C295.54 139.067 295.552 139.067 295.565 139.067C295.577 139.067 295.59 139.067 295.602 139.067C295.615 139.067 295.628 139.067 295.64 139.067C295.653 139.067 295.665 139.067 295.678 139.067C295.69 139.067 295.703 139.067 295.716 139.067C295.728 139.067 295.741 139.067 295.753 139.067C295.766 139.067 295.778 139.067 295.791 139.067C295.804 139.067 295.816 139.067 295.829 139.067C295.841 139.067 295.854 139.067 295.866 139.067C295.879 139.067 295.892 139.067 295.904 139.067C295.917 139.067 295.929 139.067 295.942 139.067C295.954 139.067 295.967 139.067 295.98 139.067C295.992 139.067 296.005 139.067 296.017 139.067C296.03 139.067 296.043 139.067 296.055 139.067C296.068 139.067 296.08 139.067 296.093 139.067C296.105 139.067 296.118 139.067 296.131 139.067C296.143 139.067 296.156 139.067 296.168 139.067C296.181 139.067 296.193 139.067 296.206 139.067C296.219 139.067 296.231 139.067 296.244 139.067C296.256 139.067 296.269 139.067 296.282 139.067C296.294 139.067 296.307 139.067 296.319 139.067C296.332 139.067 296.344 139.067 296.357 139.067C296.37 139.067 296.382 139.067 296.395 139.067C296.407 139.067 296.42 139.067 296.433 139.067C296.445 139.067 296.458 139.067 296.47 139.067C296.483 139.067 296.496 139.067 296.508 139.067C296.521 139.067 296.533 139.067 296.546 139.067C296.559 139.067 296.571 139.067 296.584 139.067C296.596 139.067 296.609 139.067 296.622 139.067C296.634 139.067 296.647 139.067 296.659 139.067C296.672 139.067 296.685 139.067 296.697 139.067C296.71 139.067 296.722 139.067 296.735 139.067C296.748 139.067 296.76 139.067 296.773 139.067C296.785 139.067 296.798 139.067 296.811 139.067C296.823 139.067 296.836 139.067 296.848 139.067C296.861 139.067 296.874 139.067 296.886 139.067C296.899 139.067 296.911 139.067 296.924 139.067C296.937 139.067 296.949 139.067 296.962 139.067C296.975 139.067 296.987 139.067 297 139.067C297.012 139.067 297.025 139.067 297.038 139.067C297.05 139.067 297.063 139.067 297.076 139.067C297.088 139.067 297.101 139.067 297.113 139.067C297.126 139.067 297.139 139.067 297.151 139.067C297.164 139.067 297.177 139.067 297.189 139.067C297.202 139.067 297.214 139.067 297.227 139.067C297.24 139.067 297.252 139.067 297.265 139.067C297.278 139.067 297.29 139.067 297.303 139.067C297.316 139.067 297.328 139.067 297.341 139.067C297.353 139.067 297.366 139.067 297.379 139.067C297.391 139.067 297.404 139.067 297.417 139.067C297.429 139.067 297.442 139.067 297.455 139.067C297.467 139.067 297.48 139.067 297.493 139.067C297.505 139.067 297.518 139.067 297.531 139.067C297.543 139.067 297.556 139.067 297.569 139.067C297.581 139.067 297.594 139.067 297.607 139.067C297.619 139.067 297.632 139.067 297.645 139.067C297.657 139.067 297.67 139.067 297.683 139.067C297.695 139.067 297.708 139.067 297.721 139.067C297.733 139.067 297.746 139.067 297.759 139.067C297.771 139.067 297.784 139.067 297.797 139.067C297.809 139.067 297.822 139.067 297.835 139.067C297.847 139.067 297.86 139.067 297.873 139.067C297.886 139.067 297.898 139.067 297.911 139.067C297.924 139.067 297.936 139.067 297.949 139.067C297.962 139.067 297.974 139.067 297.987 139.067C298 139.067 298.013 139.067 298.025 139.067C298.038 139.067 298.051 139.067 298.063 139.067C298.076 139.067 298.089 139.067 298.102 139.067C298.114 139.067 298.127 139.067 298.14 139.067C298.152 139.067 298.165 139.067 298.178 139.067C298.191 139.067 298.203 139.067 298.216 139.067C298.229 139.067 298.242 139.067 298.254 139.067C298.267 139.067 298.28 139.067 298.292 139.067C298.305 139.067 298.318 139.067 298.331 139.067C298.343 139.067 298.356 139.067 298.369 139.067C298.382 139.067 298.394 139.067 298.407 139.067C298.42 139.067 298.433 139.067 298.445 139.067C298.458 139.067 298.471 139.067 298.484 139.067C298.496 139.067 298.509 139.067 298.522 139.067C298.535 139.067 298.548 139.067 298.56 139.067C298.573 139.067 298.586 139.067 298.599 139.067C298.611 139.067 298.624 139.067 298.637 139.067C298.65 139.067 298.663 139.067 298.675 139.067C298.688 139.067 298.701 139.067 298.714 139.067C298.726 139.067 298.739 139.067 298.752 139.067C298.765 139.067 298.778 139.067 298.79 139.067C298.803 139.067 298.816 139.067 298.829 139.067C298.842 139.067 298.854 139.067 298.867 139.067C298.88 139.067 298.893 139.067 298.906 139.067C298.919 139.067 298.931 139.067 298.944 139.067C298.957 139.067 298.97 139.067 298.983 139.067C298.996 139.067 299.008 139.067 299.021 139.067C299.034 139.067 299.047 139.067 299.06 139.067C299.073 139.067 299.085 139.067 299.098 139.067C299.111 139.067 299.124 139.067 299.137 139.067C299.15 139.067 299.162 139.067 299.175 139.067C299.188 139.067 299.201 139.067 299.214 139.067C299.227 139.067 299.24 139.067 299.253 139.067C299.265 139.067 299.278 139.067 299.291 139.067C299.304 139.067 299.317 139.067 299.33 139.067C299.343 139.067 299.356 139.067 299.368 139.067C299.381 139.067 299.394 139.067 299.407 139.067C299.42 139.067 299.433 139.067 299.446 139.067C299.459 139.067 299.472 139.067 299.485 139.067C299.497 139.067 299.51 139.067 299.523 139.067C299.536 139.067 299.549 139.067 299.562 139.067C299.575 139.067 299.588 139.067 299.601 139.067C299.614 139.067 299.627 139.067 299.64 139.067C299.652 139.067 299.665 139.067 299.678 139.067C299.691 139.067 299.704 139.067 299.717 139.067C299.73 139.067 299.743 139.067 299.756 139.067C299.769 139.067 299.782 139.067 299.795 139.067C299.808 139.067 299.821 139.067 299.834 139.067C299.847 139.067 299.86 139.067 299.873 139.067C299.886 139.067 299.899 139.067 299.912 139.067C299.925 139.067 299.938 139.067 299.951 139.067C299.964 139.067 299.977 139.067 299.99 139.067C300.003 139.067 300.016 139.067 300.029 139.067C300.042 139.067 300.055 139.067 300.068 139.067C300.081 139.067 300.094 139.067 300.107 139.067C300.12 139.067 300.133 139.067 300.146 139.067C300.159 139.067 300.172 139.067 300.185 139.067C300.198 139.067 300.211 139.067 300.224 139.067C300.237 139.067 300.25 139.067 300.263 139.067C300.276 139.067 300.289 139.067 300.302 139.067C300.315 139.067 300.328 139.067 300.341 139.067C300.354 139.067 300.367 139.067 300.38 139.067C300.394 139.067 300.407 139.067 300.42 139.067C300.433 139.067 300.446 139.067 300.459 139.067C300.472 139.067 300.485 139.067 300.498 139.067C300.511 139.067 300.524 139.067 300.537 139.067C300.551 139.067 300.564 139.067 300.577 139.067C300.59 139.067 300.603 139.067 300.616 139.067C300.629 139.067 300.642 139.067 300.655 139.067C300.669 139.067 300.682 139.067 300.695 139.067C300.708 139.067 300.721 139.067 300.734 139.067C300.747 139.067 300.761 139.067 300.774 139.067C300.787 139.067 300.8 139.067 300.813 139.067C300.826 139.067 300.839 139.067 300.853 139.067C300.866 139.067 300.879 139.067 300.892 139.067C300.905 139.067 300.918 139.067 300.932 139.067C300.945 139.067 300.958 139.067 300.971 139.067C300.984 139.067 300.998 139.067 301.011 139.067C301.024 139.067 301.037 139.067 301.05 139.067C301.064 139.067 301.077 139.067 301.09 139.067C301.103 139.067 301.117 139.067 301.13 139.067C301.143 139.067 301.156 139.067 301.169 139.067C301.183 139.067 301.196 139.067 301.209 139.067C301.222 139.067 301.236 139.067 301.249 139.067C301.262 139.067 301.275 139.067 301.289 139.067C301.302 139.067 301.315 139.067 301.328 139.067C301.342 139.067 301.355 139.067 301.368 139.067C301.382 139.067 301.395 139.067 301.408 139.067C301.421 139.067 301.435 139.067 301.448 139.067C301.461 139.067 301.475 139.067 301.488 139.067C301.501 139.067 301.515 139.067 301.528 139.067C301.541 139.067 301.555 139.067 301.568 139.067C301.581 139.067 301.594 139.067 301.608 139.067C301.621 139.067 301.635 139.067 301.648 139.067C301.661 139.067 301.675 139.067 301.688 139.067C301.701 139.067 301.715 139.067 301.728 139.067C301.741 139.067 301.755 139.067 301.768 139.067C301.781 139.067 301.795 139.067 301.808 139.067C301.822 139.067 301.835 139.067 301.848 139.067C301.862 139.067 301.875 139.067 301.889 139.067C301.902 139.067 301.915 139.067 301.929 139.067C301.942 139.067 301.956 139.067 301.969 139.067C301.983 139.067 301.996 139.067 302.009 139.067C302.023 139.067 302.036 139.067 302.05 139.067C302.063 139.067 302.077 139.067 302.09 139.067C302.104 139.067 302.117 139.067 302.13 139.067C302.144 139.067 302.157 139.067 302.171 139.067C302.184 139.067 302.198 139.067 302.211 139.067C302.225 139.067 302.238 139.067 302.252 139.067C302.265 139.067 302.279 139.067 302.292 139.067C302.306 139.067 302.319 139.067 302.333 139.067C302.346 139.067 302.36 139.067 302.373 139.067C302.387 139.067 302.4 139.067 302.414 139.067C302.428 139.067 302.441 139.067 302.455 139.067C302.468 139.067 302.482 139.067 302.495 139.067C302.509 139.067 302.522 139.067 302.536 139.067C302.55 139.067 302.563 139.067 302.577 139.067C302.59 139.067 302.604 139.067 302.618 139.067C302.631 139.067 302.645 139.067 302.658 139.067C302.672 139.067 302.686 139.067 302.699 139.067C302.713 139.067 302.726 139.067 302.74 139.067C302.754 139.067 302.767 139.067 302.781 139.067C302.795 139.067 302.808 139.067 302.822 139.067C302.836 139.067 302.849 139.067 302.863 139.067C302.877 139.067 302.89 139.067 302.904 139.067C302.918 139.067 302.931 139.067 302.945 139.067C302.959 139.067 302.972 139.067 302.986 139.067C303 139.067 303.013 139.067 303.027 139.067C303.041 139.067 303.055 139.067 303.068 139.067C303.082 139.067 303.096 139.067 303.109 139.067C303.123 139.067 303.137 139.067 303.151 139.067C303.164 139.067 303.178 139.067 303.192 139.067C303.206 139.067 303.219 139.067 303.233 139.067C303.247 139.067 303.261 139.067 303.274 139.067C303.288 139.067 303.302 139.067 303.316 139.067C303.33 139.067 303.343 139.067 303.357 139.067C303.371 139.067 303.385 139.067 303.399 139.067C303.412 139.067 303.426 139.067 303.44 139.067C303.454 139.067 303.468 139.067 303.482 139.067C303.495 139.067 303.509 139.067 303.523 139.067C303.537 139.067 303.551 139.067 303.565 139.067C303.579 139.067 303.592 139.067 303.606 139.067C303.62 139.067 303.634 139.067 303.648 139.067C303.662 139.067 303.676 139.067 303.69 139.067C303.704 139.067 303.718 139.067 303.731 139.067C303.745 139.067 303.759 139.067 303.773 139.067C303.787 139.067 303.801 139.067 303.815 139.067C303.829 139.067 303.843 139.067 303.857 139.067C303.871 139.067 303.885 139.067 303.899 139.067C303.913 139.067 303.927 139.067 303.941 139.067C303.955 139.067 303.969 139.067 303.983 139.067C303.997 139.067 304.011 139.067 304.025 139.067C304.039 139.067 304.053 139.067 304.067 139.067C304.081 139.067 304.095 139.067 304.109 139.067C304.123 139.067 304.137 139.067 304.151 139.067C304.165 139.067 304.179 139.067 304.193 139.067C304.207 139.067 304.221 139.067 304.235 139.067C304.249 139.067 304.263 139.067 304.277 139.067C304.292 139.067 304.306 139.067 304.32 139.067C304.334 139.067 304.348 139.067 304.362 139.067C304.376 139.067 304.39 139.067 304.404 139.067C304.419 139.067 304.433 139.067 304.447 139.067C304.461 139.067 304.475 139.067 304.489 139.067C304.503 139.067 304.518 139.067 304.532 139.067C304.546 139.067 304.56 139.067 304.574 139.067C304.588 139.067 304.603 139.067 304.617 139.067C304.631 139.067 304.645 139.067 304.659 139.067C304.674 139.067 304.688 139.067 304.702 139.067C304.716 139.067 304.731 139.067 304.745 139.067C304.759 139.067 304.773 139.067 304.787 139.067C304.802 139.067 304.816 139.067 304.83 139.067C304.845 139.067 304.859 139.067 304.873 139.067C304.887 139.067 304.902 139.067 304.916 139.067C304.93 139.067 304.945 139.067 304.959 139.067C304.973 139.067 304.987 139.067 305.002 139.067C305.016 139.067 305.03 139.067 305.045 139.067C305.059 139.067 305.073 139.067 305.088 139.067C305.102 139.067 305.117 139.067 305.131 139.067C305.145 139.067 305.16 139.067 305.174 139.067C305.188 139.067 305.203 139.067 305.217 139.067C305.232 139.067 305.246 139.067 305.26 139.067C305.275 139.067 305.289 139.067 305.304 139.067C305.318 139.067 305.333 139.067 305.347 139.067C305.361 139.067 305.376 139.067 305.39 139.067C305.405 139.067 305.419 139.067 305.434 139.067C305.448 139.067 305.463 139.067 305.477 139.067C305.492 139.067 305.506 139.067 305.521 139.067C305.535 139.067 305.55 139.067 305.564 139.067C305.579 139.067 305.593 139.067 305.608 139.067C305.622 139.067 305.637 139.067 305.651 139.067C305.666 139.067 305.68 139.067 305.695 139.067C305.71 139.067 305.724 139.067 305.739 139.067C305.753 139.067 305.768 139.067 305.783 139.067C305.797 139.067 305.812 139.067 305.826 139.067C305.841 139.067 305.856 139.067 305.87 139.067C305.885 139.067 305.899 139.067 305.914 139.067C305.929 139.067 305.943 139.067 305.958 139.067C305.973 139.067 305.987 139.067 306.002 139.067C306.017 139.067 306.031 139.067 306.046 139.067C306.061 139.067 306.075 139.067 306.09 139.067C306.105 139.067 306.12 139.067 306.134 139.067C306.149 139.067 306.164 139.067 306.178 139.067C306.193 139.067 306.208 139.067 306.223 139.067C306.237 139.067 306.252 139.067 306.267 139.067C306.282 139.067 306.297 139.067 306.311 139.067C306.326 139.067 306.341 139.067 306.356 139.067C306.371 139.067 306.385 139.067 306.4 139.067C306.415 139.067 306.43 139.067 306.445 139.067C306.459 139.067 306.474 139.067 306.489 139.067C306.504 139.067 306.519 139.067 306.534 139.067C306.549 139.067 306.563 139.067 306.578 139.067C306.593 139.067 306.608 139.067 306.623 139.067C306.638 139.067 306.653 139.067 306.668 139.067C306.683 139.067 306.698 139.067 306.713 139.067C306.727 139.067 306.742 139.067 306.757 139.067C306.772 139.067 306.787 139.067 306.802 139.067C306.817 139.067 306.832 139.067 306.847 139.067C306.862 139.067 306.877 139.067 306.892 139.067C306.907 139.067 306.922 139.067 306.937 139.067C306.952 139.067 306.967 139.067 306.982 139.067C306.997 139.067 307.012 139.067 307.027 139.067C307.042 139.067 307.058 139.067 307.073 139.067C307.088 139.067 307.103 139.067 307.118 139.067C307.133 139.067 307.148 139.067 307.163 139.067C307.178 139.067 307.193 139.067 307.208 139.067C307.224 139.067 307.239 139.067 307.254 139.067C307.269 139.067 307.284 139.067 307.299 139.067C307.314 139.067 307.33 139.067 307.345 139.067C307.36 139.067 307.375 139.067 307.39 139.067C307.406 139.067 307.421 139.067 307.436 139.067C307.451 139.067 307.466 139.067 307.482 139.067C307.497 139.067 307.512 139.067 307.527 139.067C307.543 139.067 307.558 139.067 307.573 139.067C307.588 139.067 307.604 139.067 307.619 139.067C307.634 139.067 307.65 139.067 307.665 139.067C307.68 139.067 307.695 139.067 307.711 139.067C307.726 139.067 307.741 139.067 307.757 139.067C307.772 139.067 307.787 139.067 307.803 139.067C307.818 139.067 307.833 139.067 307.849 139.067C307.864 139.067 307.88 139.067 307.895 139.067C307.91 139.067 307.926 139.067 307.941 139.067C307.957 139.067 307.972 139.067 307.987 139.067C308.003 139.067 308.018 139.067 308.034 139.067C308.049 139.067 308.065 139.067 308.08 139.067C308.096 139.067 308.111 139.067 308.127 139.067C308.142 139.067 308.158 139.067 308.173 139.067C308.189 139.067 308.204 139.067 308.22 139.067C308.235 139.067 308.251 139.067 308.266 139.067C308.282 139.067 308.297 139.067 308.313 139.067C308.328 139.067 308.344 139.067 308.36 139.067C308.375 139.067 308.391 139.067 308.406 139.067C308.422 139.067 308.438 139.067 308.453 139.067C308.469 139.067 308.484 139.067 308.5 139.067V136.067C308.484 136.067 308.469 136.067 308.453 136.067C308.438 136.067 308.422 136.067 308.406 136.067C308.391 136.067 308.375 136.067 308.36 136.067C308.344 136.067 308.328 136.067 308.313 136.067C308.297 136.067 308.282 136.067 308.266 136.067C308.251 136.067 308.235 136.067 308.22 136.067C308.204 136.067 308.189 136.067 308.173 136.067C308.158 136.067 308.142 136.067 308.127 136.067C308.111 136.067 308.096 136.067 308.08 136.067C308.065 136.067 308.049 136.067 308.034 136.067C308.018 136.067 308.003 136.067 307.987 136.067C307.972 136.067 307.957 136.067 307.941 136.067C307.926 136.067 307.91 136.067 307.895 136.067C307.88 136.067 307.864 136.067 307.849 136.067C307.833 136.067 307.818 136.067 307.803 136.067C307.787 136.067 307.772 136.067 307.757 136.067C307.741 136.067 307.726 136.067 307.711 136.067C307.695 136.067 307.68 136.067 307.665 136.067C307.65 136.067 307.634 136.067 307.619 136.067C307.604 136.067 307.588 136.067 307.573 136.067C307.558 136.067 307.543 136.067 307.527 136.067C307.512 136.067 307.497 136.067 307.482 136.067C307.466 136.067 307.451 136.067 307.436 136.067C307.421 136.067 307.406 136.067 307.39 136.067C307.375 136.067 307.36 136.067 307.345 136.067C307.33 136.067 307.314 136.067 307.299 136.067C307.284 136.067 307.269 136.067 307.254 136.067C307.239 136.067 307.224 136.067 307.208 136.067C307.193 136.067 307.178 136.067 307.163 136.067C307.148 136.067 307.133 136.067 307.118 136.067C307.103 136.067 307.088 136.067 307.073 136.067C307.058 136.067 307.042 136.067 307.027 136.067C307.012 136.067 306.997 136.067 306.982 136.067C306.967 136.067 306.952 136.067 306.937 136.067C306.922 136.067 306.907 136.067 306.892 136.067C306.877 136.067 306.862 136.067 306.847 136.067C306.832 136.067 306.817 136.067 306.802 136.067C306.787 136.067 306.772 136.067 306.757 136.067C306.742 136.067 306.727 136.067 306.713 136.067C306.698 136.067 306.683 136.067 306.668 136.067C306.653 136.067 306.638 136.067 306.623 136.067C306.608 136.067 306.593 136.067 306.578 136.067C306.563 136.067 306.549 136.067 306.534 136.067C306.519 136.067 306.504 136.067 306.489 136.067C306.474 136.067 306.459 136.067 306.445 136.067C306.43 136.067 306.415 136.067 306.4 136.067C306.385 136.067 306.371 136.067 306.356 136.067C306.341 136.067 306.326 136.067 306.311 136.067C306.297 136.067 306.282 136.067 306.267 136.067C306.252 136.067 306.237 136.067 306.223 136.067C306.208 136.067 306.193 136.067 306.178 136.067C306.164 136.067 306.149 136.067 306.134 136.067C306.12 136.067 306.105 136.067 306.09 136.067C306.075 136.067 306.061 136.067 306.046 136.067C306.031 136.067 306.017 136.067 306.002 136.067C305.987 136.067 305.973 136.067 305.958 136.067C305.943 136.067 305.929 136.067 305.914 136.067C305.899 136.067 305.885 136.067 305.87 136.067C305.856 136.067 305.841 136.067 305.826 136.067C305.812 136.067 305.797 136.067 305.783 136.067C305.768 136.067 305.753 136.067 305.739 136.067C305.724 136.067 305.71 136.067 305.695 136.067C305.68 136.067 305.666 136.067 305.651 136.067C305.637 136.067 305.622 136.067 305.608 136.067C305.593 136.067 305.579 136.067 305.564 136.067C305.55 136.067 305.535 136.067 305.521 136.067C305.506 136.067 305.492 136.067 305.477 136.067C305.463 136.067 305.448 136.067 305.434 136.067C305.419 136.067 305.405 136.067 305.39 136.067C305.376 136.067 305.361 136.067 305.347 136.067C305.333 136.067 305.318 136.067 305.304 136.067C305.289 136.067 305.275 136.067 305.26 136.067C305.246 136.067 305.232 136.067 305.217 136.067C305.203 136.067 305.188 136.067 305.174 136.067C305.16 136.067 305.145 136.067 305.131 136.067C305.117 136.067 305.102 136.067 305.088 136.067C305.073 136.067 305.059 136.067 305.045 136.067C305.03 136.067 305.016 136.067 305.002 136.067C304.987 136.067 304.973 136.067 304.959 136.067C304.945 136.067 304.93 136.067 304.916 136.067C304.902 136.067 304.887 136.067 304.873 136.067C304.859 136.067 304.845 136.067 304.83 136.067C304.816 136.067 304.802 136.067 304.787 136.067C304.773 136.067 304.759 136.067 304.745 136.067C304.731 136.067 304.716 136.067 304.702 136.067C304.688 136.067 304.674 136.067 304.659 136.067C304.645 136.067 304.631 136.067 304.617 136.067C304.603 136.067 304.588 136.067 304.574 136.067C304.56 136.067 304.546 136.067 304.532 136.067C304.518 136.067 304.503 136.067 304.489 136.067C304.475 136.067 304.461 136.067 304.447 136.067C304.433 136.067 304.419 136.067 304.404 136.067C304.39 136.067 304.376 136.067 304.362 136.067C304.348 136.067 304.334 136.067 304.32 136.067C304.306 136.067 304.292 136.067 304.277 136.067C304.263 136.067 304.249 136.067 304.235 136.067C304.221 136.067 304.207 136.067 304.193 136.067C304.179 136.067 304.165 136.067 304.151 136.067C304.137 136.067 304.123 136.067 304.109 136.067C304.095 136.067 304.081 136.067 304.067 136.067C304.053 136.067 304.039 136.067 304.025 136.067C304.011 136.067 303.997 136.067 303.983 136.067C303.969 136.067 303.955 136.067 303.941 136.067C303.927 136.067 303.913 136.067 303.899 136.067C303.885 136.067 303.871 136.067 303.857 136.067C303.843 136.067 303.829 136.067 303.815 136.067C303.801 136.067 303.787 136.067 303.773 136.067C303.759 136.067 303.745 136.067 303.731 136.067C303.718 136.067 303.704 136.067 303.69 136.067C303.676 136.067 303.662 136.067 303.648 136.067C303.634 136.067 303.62 136.067 303.606 136.067C303.592 136.067 303.579 136.067 303.565 136.067C303.551 136.067 303.537 136.067 303.523 136.067C303.509 136.067 303.495 136.067 303.482 136.067C303.468 136.067 303.454 136.067 303.44 136.067C303.426 136.067 303.412 136.067 303.399 136.067C303.385 136.067 303.371 136.067 303.357 136.067C303.343 136.067 303.33 136.067 303.316 136.067C303.302 136.067 303.288 136.067 303.274 136.067C303.261 136.067 303.247 136.067 303.233 136.067C303.219 136.067 303.206 136.067 303.192 136.067C303.178 136.067 303.164 136.067 303.151 136.067C303.137 136.067 303.123 136.067 303.109 136.067C303.096 136.067 303.082 136.067 303.068 136.067C303.055 136.067 303.041 136.067 303.027 136.067C303.013 136.067 303 136.067 302.986 136.067C302.972 136.067 302.959 136.067 302.945 136.067C302.931 136.067 302.918 136.067 302.904 136.067C302.89 136.067 302.877 136.067 302.863 136.067C302.849 136.067 302.836 136.067 302.822 136.067C302.808 136.067 302.795 136.067 302.781 136.067C302.767 136.067 302.754 136.067 302.74 136.067C302.726 136.067 302.713 136.067 302.699 136.067C302.686 136.067 302.672 136.067 302.658 136.067C302.645 136.067 302.631 136.067 302.618 136.067C302.604 136.067 302.59 136.067 302.577 136.067C302.563 136.067 302.55 136.067 302.536 136.067C302.522 136.067 302.509 136.067 302.495 136.067C302.482 136.067 302.468 136.067 302.455 136.067C302.441 136.067 302.428 136.067 302.414 136.067C302.4 136.067 302.387 136.067 302.373 136.067C302.36 136.067 302.346 136.067 302.333 136.067C302.319 136.067 302.306 136.067 302.292 136.067C302.279 136.067 302.265 136.067 302.252 136.067C302.238 136.067 302.225 136.067 302.211 136.067C302.198 136.067 302.184 136.067 302.171 136.067C302.157 136.067 302.144 136.067 302.13 136.067C302.117 136.067 302.104 136.067 302.09 136.067C302.077 136.067 302.063 136.067 302.05 136.067C302.036 136.067 302.023 136.067 302.009 136.067C301.996 136.067 301.983 136.067 301.969 136.067C301.956 136.067 301.942 136.067 301.929 136.067C301.915 136.067 301.902 136.067 301.889 136.067C301.875 136.067 301.862 136.067 301.848 136.067C301.835 136.067 301.822 136.067 301.808 136.067C301.795 136.067 301.781 136.067 301.768 136.067C301.755 136.067 301.741 136.067 301.728 136.067C301.715 136.067 301.701 136.067 301.688 136.067C301.675 136.067 301.661 136.067 301.648 136.067C301.635 136.067 301.621 136.067 301.608 136.067C301.594 136.067 301.581 136.067 301.568 136.067C301.555 136.067 301.541 136.067 301.528 136.067C301.515 136.067 301.501 136.067 301.488 136.067C301.475 136.067 301.461 136.067 301.448 136.067C301.435 136.067 301.421 136.067 301.408 136.067C301.395 136.067 301.382 136.067 301.368 136.067C301.355 136.067 301.342 136.067 301.328 136.067C301.315 136.067 301.302 136.067 301.289 136.067C301.275 136.067 301.262 136.067 301.249 136.067C301.236 136.067 301.222 136.067 301.209 136.067C301.196 136.067 301.183 136.067 301.169 136.067C301.156 136.067 301.143 136.067 301.13 136.067C301.117 136.067 301.103 136.067 301.09 136.067C301.077 136.067 301.064 136.067 301.05 136.067C301.037 136.067 301.024 136.067 301.011 136.067C300.998 136.067 300.984 136.067 300.971 136.067C300.958 136.067 300.945 136.067 300.932 136.067C300.918 136.067 300.905 136.067 300.892 136.067C300.879 136.067 300.866 136.067 300.853 136.067C300.839 136.067 300.826 136.067 300.813 136.067C300.8 136.067 300.787 136.067 300.774 136.067C300.761 136.067 300.747 136.067 300.734 136.067C300.721 136.067 300.708 136.067 300.695 136.067C300.682 136.067 300.669 136.067 300.655 136.067C300.642 136.067 300.629 136.067 300.616 136.067C300.603 136.067 300.59 136.067 300.577 136.067C300.564 136.067 300.551 136.067 300.537 136.067C300.524 136.067 300.511 136.067 300.498 136.067C300.485 136.067 300.472 136.067 300.459 136.067C300.446 136.067 300.433 136.067 300.42 136.067C300.407 136.067 300.394 136.067 300.38 136.067C300.367 136.067 300.354 136.067 300.341 136.067C300.328 136.067 300.315 136.067 300.302 136.067C300.289 136.067 300.276 136.067 300.263 136.067C300.25 136.067 300.237 136.067 300.224 136.067C300.211 136.067 300.198 136.067 300.185 136.067C300.172 136.067 300.159 136.067 300.146 136.067C300.133 136.067 300.12 136.067 300.107 136.067C300.094 136.067 300.081 136.067 300.068 136.067C300.055 136.067 300.042 136.067 300.029 136.067C300.016 136.067 300.003 136.067 299.99 136.067C299.977 136.067 299.964 136.067 299.951 136.067C299.938 136.067 299.925 136.067 299.912 136.067C299.899 136.067 299.886 136.067 299.873 136.067C299.86 136.067 299.847 136.067 299.834 136.067C299.821 136.067 299.808 136.067 299.795 136.067C299.782 136.067 299.769 136.067 299.756 136.067C299.743 136.067 299.73 136.067 299.717 136.067C299.704 136.067 299.691 136.067 299.678 136.067C299.665 136.067 299.652 136.067 299.64 136.067C299.627 136.067 299.614 136.067 299.601 136.067C299.588 136.067 299.575 136.067 299.562 136.067C299.549 136.067 299.536 136.067 299.523 136.067C299.51 136.067 299.497 136.067 299.485 136.067C299.472 136.067 299.459 136.067 299.446 136.067C299.433 136.067 299.42 136.067 299.407 136.067C299.394 136.067 299.381 136.067 299.368 136.067C299.356 136.067 299.343 136.067 299.33 136.067C299.317 136.067 299.304 136.067 299.291 136.067C299.278 136.067 299.265 136.067 299.253 136.067C299.24 136.067 299.227 136.067 299.214 136.067C299.201 136.067 299.188 136.067 299.175 136.067C299.162 136.067 299.15 136.067 299.137 136.067C299.124 136.067 299.111 136.067 299.098 136.067C299.085 136.067 299.073 136.067 299.06 136.067C299.047 136.067 299.034 136.067 299.021 136.067C299.008 136.067 298.996 136.067 298.983 136.067C298.97 136.067 298.957 136.067 298.944 136.067C298.931 136.067 298.919 136.067 298.906 136.067C298.893 136.067 298.88 136.067 298.867 136.067C298.854 136.067 298.842 136.067 298.829 136.067C298.816 136.067 298.803 136.067 298.79 136.067C298.778 136.067 298.765 136.067 298.752 136.067C298.739 136.067 298.726 136.067 298.714 136.067C298.701 136.067 298.688 136.067 298.675 136.067C298.663 136.067 298.65 136.067 298.637 136.067C298.624 136.067 298.611 136.067 298.599 136.067C298.586 136.067 298.573 136.067 298.56 136.067C298.548 136.067 298.535 136.067 298.522 136.067C298.509 136.067 298.496 136.067 298.484 136.067C298.471 136.067 298.458 136.067 298.445 136.067C298.433 136.067 298.42 136.067 298.407 136.067C298.394 136.067 298.382 136.067 298.369 136.067C298.356 136.067 298.343 136.067 298.331 136.067C298.318 136.067 298.305 136.067 298.292 136.067C298.28 136.067 298.267 136.067 298.254 136.067C298.242 136.067 298.229 136.067 298.216 136.067C298.203 136.067 298.191 136.067 298.178 136.067C298.165 136.067 298.152 136.067 298.14 136.067C298.127 136.067 298.114 136.067 298.102 136.067C298.089 136.067 298.076 136.067 298.063 136.067C298.051 136.067 298.038 136.067 298.025 136.067C298.013 136.067 298 136.067 297.987 136.067C297.974 136.067 297.962 136.067 297.949 136.067C297.936 136.067 297.924 136.067 297.911 136.067C297.898 136.067 297.886 136.067 297.873 136.067C297.86 136.067 297.847 136.067 297.835 136.067C297.822 136.067 297.809 136.067 297.797 136.067C297.784 136.067 297.771 136.067 297.759 136.067C297.746 136.067 297.733 136.067 297.721 136.067C297.708 136.067 297.695 136.067 297.683 136.067C297.67 136.067 297.657 136.067 297.645 136.067C297.632 136.067 297.619 136.067 297.607 136.067C297.594 136.067 297.581 136.067 297.569 136.067C297.556 136.067 297.543 136.067 297.531 136.067C297.518 136.067 297.505 136.067 297.493 136.067C297.48 136.067 297.467 136.067 297.455 136.067C297.442 136.067 297.429 136.067 297.417 136.067C297.404 136.067 297.391 136.067 297.379 136.067C297.366 136.067 297.353 136.067 297.341 136.067C297.328 136.067 297.316 136.067 297.303 136.067C297.29 136.067 297.278 136.067 297.265 136.067C297.252 136.067 297.24 136.067 297.227 136.067C297.214 136.067 297.202 136.067 297.189 136.067C297.177 136.067 297.164 136.067 297.151 136.067C297.139 136.067 297.126 136.067 297.113 136.067C297.101 136.067 297.088 136.067 297.076 136.067C297.063 136.067 297.05 136.067 297.038 136.067C297.025 136.067 297.012 136.067 297 136.067C296.987 136.067 296.975 136.067 296.962 136.067C296.949 136.067 296.937 136.067 296.924 136.067C296.911 136.067 296.899 136.067 296.886 136.067C296.874 136.067 296.861 136.067 296.848 136.067C296.836 136.067 296.823 136.067 296.811 136.067C296.798 136.067 296.785 136.067 296.773 136.067C296.76 136.067 296.748 136.067 296.735 136.067C296.722 136.067 296.71 136.067 296.697 136.067C296.685 136.067 296.672 136.067 296.659 136.067C296.647 136.067 296.634 136.067 296.622 136.067C296.609 136.067 296.596 136.067 296.584 136.067C296.571 136.067 296.559 136.067 296.546 136.067C296.533 136.067 296.521 136.067 296.508 136.067C296.496 136.067 296.483 136.067 296.47 136.067C296.458 136.067 296.445 136.067 296.433 136.067C296.42 136.067 296.407 136.067 296.395 136.067C296.382 136.067 296.37 136.067 296.357 136.067C296.344 136.067 296.332 136.067 296.319 136.067C296.307 136.067 296.294 136.067 296.282 136.067C296.269 136.067 296.256 136.067 296.244 136.067C296.231 136.067 296.219 136.067 296.206 136.067C296.193 136.067 296.181 136.067 296.168 136.067C296.156 136.067 296.143 136.067 296.131 136.067C296.118 136.067 296.105 136.067 296.093 136.067C296.08 136.067 296.068 136.067 296.055 136.067C296.043 136.067 296.03 136.067 296.017 136.067C296.005 136.067 295.992 136.067 295.98 136.067C295.967 136.067 295.954 136.067 295.942 136.067C295.929 136.067 295.917 136.067 295.904 136.067C295.892 136.067 295.879 136.067 295.866 136.067C295.854 136.067 295.841 136.067 295.829 136.067C295.816 136.067 295.804 136.067 295.791 136.067C295.778 136.067 295.766 136.067 295.753 136.067C295.741 136.067 295.728 136.067 295.716 136.067C295.703 136.067 295.69 136.067 295.678 136.067C295.665 136.067 295.653 136.067 295.64 136.067C295.628 136.067 295.615 136.067 295.602 136.067C295.59 136.067 295.577 136.067 295.565 136.067C295.552 136.067 295.54 136.067 295.527 136.067C295.514 136.067 295.502 136.067 295.489 136.067C295.477 136.067 295.464 136.067 295.452 136.067C295.439 136.067 295.427 136.067 295.414 136.067C295.401 136.067 295.389 136.067 295.376 136.067C295.364 136.067 295.351 136.067 295.339 136.067C295.326 136.067 295.313 136.067 295.301 136.067C295.288 136.067 295.276 136.067 295.263 136.067C295.251 136.067 295.238 136.067 295.225 136.067C295.213 136.067 295.2 136.067 295.188 136.067C295.175 136.067 295.163 136.067 295.15 136.067C295.137 136.067 295.125 136.067 295.112 136.067C295.1 136.067 295.087 136.067 295.075 136.067C295.062 136.067 295.049 136.067 295.037 136.067C295.024 136.067 295.012 136.067 294.999 136.067C294.987 136.067 294.974 136.067 294.961 136.067C294.949 136.067 294.936 136.067 294.924 136.067C294.911 136.067 294.898 136.067 294.886 136.067C294.873 136.067 294.861 136.067 294.848 136.067C294.836 136.067 294.823 136.067 294.81 136.067C294.798 136.067 294.785 136.067 294.773 136.067C294.76 136.067 294.748 136.067 294.735 136.067C294.722 136.067 294.71 136.067 294.697 136.067C294.685 136.067 294.672 136.067 294.659 136.067C294.647 136.067 294.634 136.067 294.622 136.067C294.609 136.067 294.597 136.067 294.584 136.067C294.571 136.067 294.559 136.067 294.546 136.067C294.534 136.067 294.521 136.067 294.508 136.067C294.496 136.067 294.483 136.067 294.471 136.067C294.458 136.067 294.446 136.067 294.433 136.067C294.42 136.067 294.408 136.067 294.395 136.067C294.383 136.067 294.37 136.067 294.357 136.067C294.345 136.067 294.332 136.067 294.32 136.067C294.307 136.067 294.294 136.067 294.282 136.067C294.269 136.067 294.257 136.067 294.244 136.067C294.231 136.067 294.219 136.067 294.206 136.067C294.194 136.067 294.181 136.067 294.168 136.067C294.156 136.067 294.143 136.067 294.131 136.067C294.118 136.067 294.105 136.067 294.093 136.067C294.08 136.067 294.068 136.067 294.055 136.067C294.042 136.067 294.03 136.067 294.017 136.067C294.004 136.067 293.992 136.067 293.979 136.067C293.967 136.067 293.954 136.067 293.941 136.067C293.929 136.067 293.916 136.067 293.904 136.067C293.891 136.067 293.878 136.067 293.866 136.067C293.853 136.067 293.84 136.067 293.828 136.067C293.815 136.067 293.803 136.067 293.79 136.067C293.777 136.067 293.765 136.067 293.752 136.067C293.739 136.067 293.727 136.067 293.714 136.067C293.702 136.067 293.689 136.067 293.676 136.067C293.664 136.067 293.651 136.067 293.638 136.067C293.626 136.067 293.613 136.067 293.6 136.067C293.588 136.067 293.575 136.067 293.562 136.067C293.55 136.067 293.537 136.067 293.525 136.067C293.512 136.067 293.499 136.067 293.487 136.067C293.474 136.067 293.461 136.067 293.449 136.067C293.436 136.067 293.423 136.067 293.411 136.067C293.398 136.067 293.385 136.067 293.373 136.067C293.36 136.067 293.347 136.067 293.335 136.067C293.322 136.067 293.309 136.067 293.297 136.067C293.284 136.067 293.271 136.067 293.259 136.067C293.246 136.067 293.233 136.067 293.221 136.067C293.208 136.067 293.195 136.067 293.183 136.067C293.17 136.067 293.157 136.067 293.145 136.067C293.132 136.067 293.119 136.067 293.107 136.067C293.094 136.067 293.081 136.067 293.069 136.067C293.056 136.067 293.043 136.067 293.03 136.067C293.018 136.067 293.005 136.067 292.992 136.067C292.98 136.067 292.967 136.067 292.954 136.067C292.942 136.067 292.929 136.067 292.916 136.067C292.903 136.067 292.891 136.067 292.878 136.067C292.865 136.067 292.853 136.067 292.84 136.067C292.827 136.067 292.815 136.067 292.802 136.067C292.789 136.067 292.776 136.067 292.764 136.067C292.751 136.067 292.738 136.067 292.725 136.067C292.713 136.067 292.7 136.067 292.687 136.067C292.675 136.067 292.662 136.067 292.649 136.067C292.636 136.067 292.624 136.067 292.611 136.067C292.598 136.067 292.585 136.067 292.573 136.067C292.56 136.067 292.547 136.067 292.534 136.067C292.522 136.067 292.509 136.067 292.496 136.067C292.483 136.067 292.471 136.067 292.458 136.067C292.445 136.067 292.432 136.067 292.42 136.067C292.407 136.067 292.394 136.067 292.381 136.067C292.369 136.067 292.356 136.067 292.343 136.067C292.33 136.067 292.318 136.067 292.305 136.067C292.292 136.067 292.279 136.067 292.266 136.067C292.254 136.067 292.241 136.067 292.228 136.067C292.215 136.067 292.203 136.067 292.19 136.067C292.177 136.067 292.164 136.067 292.151 136.067C292.139 136.067 292.126 136.067 292.113 136.067C292.1 136.067 292.087 136.067 292.075 136.067C292.062 136.067 292.049 136.067 292.036 136.067C292.023 136.067 292.01 136.067 291.998 136.067C291.985 136.067 291.972 136.067 291.959 136.067C291.946 136.067 291.934 136.067 291.921 136.067C291.908 136.067 291.895 136.067 291.882 136.067C291.869 136.067 291.857 136.067 291.844 136.067C291.831 136.067 291.818 136.067 291.805 136.067C291.792 136.067 291.78 136.067 291.767 136.067C291.754 136.067 291.741 136.067 291.728 136.067C291.715 136.067 291.702 136.067 291.69 136.067C291.677 136.067 291.664 136.067 291.651 136.067C291.638 136.067 291.625 136.067 291.612 136.067C291.599 136.067 291.587 136.067 291.574 136.067C291.561 136.067 291.548 136.067 291.535 136.067C291.522 136.067 291.509 136.067 291.496 136.067C291.483 136.067 291.471 136.067 291.458 136.067C291.445 136.067 291.432 136.067 291.419 136.067C291.406 136.067 291.393 136.067 291.38 136.067C291.367 136.067 291.354 136.067 291.341 136.067C291.329 136.067 291.316 136.067 291.303 136.067C291.29 136.067 291.277 136.067 291.264 136.067C291.251 136.067 291.238 136.067 291.225 136.067C291.212 136.067 291.199 136.067 291.186 136.067C291.173 136.067 291.16 136.067 291.147 136.067C291.135 136.067 291.122 136.067 291.109 136.067C291.096 136.067 291.083 136.067 291.07 136.067C291.057 136.067 291.044 136.067 291.031 136.067C291.018 136.067 291.005 136.067 290.992 136.067C290.979 136.067 290.966 136.067 290.953 136.067C290.94 136.067 290.927 136.067 290.914 136.067C290.901 136.067 290.888 136.067 290.875 136.067C290.862 136.067 290.849 136.067 290.836 136.067C290.823 136.067 290.81 136.067 290.797 136.067C290.784 136.067 290.771 136.067 290.758 136.067C290.745 136.067 290.732 136.067 290.719 136.067C290.706 136.067 290.693 136.067 290.68 136.067C290.667 136.067 290.654 136.067 290.641 136.067C290.628 136.067 290.615 136.067 290.601 136.067C290.588 136.067 290.575 136.067 290.562 136.067C290.549 136.067 290.536 136.067 290.523 136.067C290.51 136.067 290.497 136.067 290.484 136.067C290.471 136.067 290.458 136.067 290.445 136.067C290.432 136.067 290.418 136.067 290.405 136.067C290.392 136.067 290.379 136.067 290.366 136.067C290.353 136.067 290.34 136.067 290.327 136.067C290.314 136.067 290.301 136.067 290.287 136.067C290.274 136.067 290.261 136.067 290.248 136.067C290.235 136.067 290.222 136.067 290.209 136.067C290.196 136.067 290.182 136.067 290.169 136.067C290.156 136.067 290.143 136.067 290.13 136.067C290.117 136.067 290.104 136.067 290.09 136.067C290.077 136.067 290.064 136.067 290.051 136.067C290.038 136.067 290.025 136.067 290.011 136.067C289.998 136.067 289.985 136.067 289.972 136.067C289.959 136.067 289.946 136.067 289.932 136.067C289.919 136.067 289.906 136.067 289.893 136.067C289.88 136.067 289.866 136.067 289.853 136.067C289.84 136.067 289.827 136.067 289.814 136.067C289.8 136.067 289.787 136.067 289.774 136.067C289.761 136.067 289.747 136.067 289.734 136.067C289.721 136.067 289.708 136.067 289.695 136.067C289.681 136.067 289.668 136.067 289.655 136.067C289.642 136.067 289.628 136.067 289.615 136.067C289.602 136.067 289.588 136.067 289.575 136.067C289.562 136.067 289.549 136.067 289.535 136.067C289.522 136.067 289.509 136.067 289.496 136.067C289.482 136.067 289.469 136.067 289.456 136.067C289.442 136.067 289.429 136.067 289.416 136.067C289.402 136.067 289.389 136.067 289.376 136.067C289.363 136.067 289.349 136.067 289.336 136.067C289.323 136.067 289.309 136.067 289.296 136.067C289.283 136.067 289.269 136.067 289.256 136.067C289.243 136.067 289.229 136.067 289.216 136.067C289.202 136.067 289.189 136.067 289.176 136.067C289.162 136.067 289.149 136.067 289.136 136.067C289.122 136.067 289.109 136.067 289.095 136.067C289.082 136.067 289.069 136.067 289.055 136.067C289.042 136.067 289.029 136.067 289.015 136.067C289.002 136.067 288.988 136.067 288.975 136.067C288.961 136.067 288.948 136.067 288.935 136.067C288.921 136.067 288.908 136.067 288.894 136.067C288.881 136.067 288.867 136.067 288.854 136.067C288.841 136.067 288.827 136.067 288.814 136.067C288.8 136.067 288.787 136.067 288.773 136.067C288.76 136.067 288.746 136.067 288.733 136.067C288.719 136.067 288.706 136.067 288.692 136.067C288.679 136.067 288.665 136.067 288.652 136.067C288.638 136.067 288.625 136.067 288.611 136.067C288.598 136.067 288.584 136.067 288.571 136.067C288.557 136.067 288.544 136.067 288.53 136.067C288.517 136.067 288.503 136.067 288.49 136.067C288.476 136.067 288.463 136.067 288.449 136.067C288.436 136.067 288.422 136.067 288.408 136.067C288.395 136.067 288.381 136.067 288.368 136.067C288.354 136.067 288.341 136.067 288.327 136.067C288.313 136.067 288.3 136.067 288.286 136.067C288.273 136.067 288.259 136.067 288.246 136.067C288.232 136.067 288.218 136.067 288.205 136.067C288.191 136.067 288.177 136.067 288.164 136.067C288.15 136.067 288.137 136.067 288.123 136.067C288.109 136.067 288.096 136.067 288.082 136.067C288.068 136.067 288.055 136.067 288.041 136.067C288.027 136.067 288.014 136.067 288 136.067V139.067ZM308.5 137.567C308.5 139.067 308.5 139.067 308.5 139.067C308.5 139.067 308.5 139.067 308.5 139.067C308.501 139.067 308.501 139.067 308.502 139.067C308.504 139.067 308.506 139.067 308.51 139.067C308.517 139.067 308.528 139.067 308.543 139.067C308.573 139.067 308.618 139.067 308.677 139.068C308.796 139.068 308.972 139.07 309.198 139.073C309.65 139.078 310.302 139.09 311.097 139.113C312.69 139.16 314.85 139.252 317.129 139.437C319.414 139.622 321.787 139.898 323.815 140.303C325.918 140.724 327.396 141.239 328.1 141.767L329.9 139.367C328.604 138.395 326.519 137.785 324.404 137.362C322.213 136.924 319.711 136.637 317.371 136.447C315.025 136.257 312.81 136.162 311.184 136.114C310.37 136.091 309.702 136.079 309.236 136.073C309.003 136.07 308.82 136.068 308.695 136.068C308.633 136.067 308.585 136.067 308.552 136.067C308.535 136.067 308.523 136.067 308.514 136.067C308.51 136.067 308.506 136.067 308.504 136.067C308.503 136.067 308.502 136.067 308.501 136.067C308.501 136.067 308.501 136.067 308.5 136.067C308.5 136.067 308.5 136.067 308.5 137.567ZM308.358 139.06C312.855 139.488 315.599 142.311 317.284 146.783C318.996 151.33 319.5 157.352 319.5 163.567H322.5C322.5 157.282 322.004 150.804 320.091 145.726C318.151 140.573 314.645 136.645 308.642 136.074L308.358 139.06ZM308.5 136.067H288V139.067H308.5V136.067Z" fill="#311919"/>
<path d="M232.5 427.5C263.5 394.5 219.5 390 201.5 394C183.5 398 169.5 431.5 169.5 487.5C169.5 543.5 201.5 570.5 213 568C224.5 565.5 229.5 550 229.5 550C229.5 550 251.5 520.5 249 497C246.5 473.5 201.5 460.5 232.5 427.5Z" fill="#F2D06B" stroke="#F2D06B" stroke-width="3"/>
<path d="M182 413C182 413 182.67 403.819 182 398C177.706 360.717 67.4999 457.5 119.5 471C171.5 484.5 139.5 522 133.5 557.5C127.5 593 202.5 602.5 202.5 602.5C207 589 210.5 578.761 228.5 578.761C212 564.5 228.5 561.841 228.5 551C228.5 551 220.5 578 202.5 564.5C184.5 551 149 478.5 182 413Z" fill="#F2D06B"/>
<path d="M202.5 602.5C202.5 639.5 280 655.5 337 648C394 640.5 438 587 433 532C428 477 404.5 433 404.5 433C394 413 346.5 354.5 339.5 383C333.523 407.335 323.171 434.951 345.175 459C362.5 494.5 302 546.5 265.5 517.104C249.222 523.054 243.505 536.745 228.5 551C228.5 561.841 212 564.5 228.5 578.761C210.5 578.761 207 589 202.5 602.5Z" fill="#F2D06B"/>
<path d="M202.5 394C191.573 394 188 401 182 413M182 413C182 413 182.67 403.819 182 398C177.706 360.717 67.4999 457.5 119.5 471C171.5 484.5 139.5 522 133.5 557.5C127.5 593 202.5 602.5 202.5 602.5M182 413C149 478.5 184.5 551 202.5 564.5C220.5 578 228.5 551 228.5 551M202.5 602.5C202.5 639.5 280 655.5 337 648C394 640.5 438 587 433 532C428 477 404.5 433 404.5 433M202.5 602.5C207 589 210.5 578.761 228.5 578.761M404.5 433C425 478 398.1 466.216 394 487.5C402.201 504.878 423.5 514 415 532M404.5 433C394 413 346.5 354.5 339.5 383C333.523 407.335 323.171 434.951 345.175 459M359.5 471C353.655 467.127 348.941 463.116 345.175 459M248.5 560.5C248.5 578.761 228.5 578.761 228.5 578.761M228.5 578.761C212 564.5 228.5 561.841 228.5 551M228.5 551C228.5 551 254.5 524 248.5 494.5C242.5 465 206 471 232.5 427M228.5 551C243.505 536.745 249.222 523.054 265.5 517.104M286 514C277.508 514 270.919 515.123 265.5 517.104M265.5 517.104C302 546.5 362.5 494.5 345.175 459" stroke="#311919" stroke-width="3"/>
<path d="M345.175 459C348.941 463.116 353.655 467.127 359.5 471C354.423 496.579 362 483 342 520C322 557 281.5 540 281.5 540C267.974 532.142 265.897 526.917 265.5 517.104C302 546.5 362.5 494.5 345.175 459Z" fill="#F2AA6B" fill-opacity="0.5"/>
<path d="M202.5 564.5C220.5 578 228.5 551 228.5 551C207.5 551 164 530.5 182 413C177.004 422.916 173.578 432.992 171.424 443C169.941 449.891 169.06 456.749 168.685 463.5C166.006 511.71 189.101 554.451 202.5 564.5Z" fill="#F2AA6B" fill-opacity="0.5"/>
<path d="M119.5 471C171.5 484.5 139.5 522 133.5 557.5C127.5 593 202.5 602.5 202.5 602.5C205.049 594.854 207.277 588.254 212 583.968C215.616 580.686 220.695 578.761 228.5 578.761C212 564.5 228.5 561.841 228.5 551C228.5 551 220.5 578 202.5 564.5C189.101 554.451 166.006 511.71 168.685 463.5C151.795 462.527 143.061 460.613 132 452C125.678 448.024 125.532 436.097 127.116 418C106.965 438.825 94.5273 464.517 119.5 471Z" fill="#F2AA6B" fill-opacity="0.5"/>
<path d="M202.5 602.5C202.5 639.5 280 655.5 337 648C394 640.5 438 587 433 532C428 477 404.5 433 404.5 433C425 478 398.1 466.216 394 487.5C402.201 504.878 423.5 514 415 532L416 559.5C417 587 372 620 351.5 625C331 630 275 633.5 243.5 622C212 610.5 212.252 612.146 212 583.968C207.277 588.254 205.049 594.854 202.5 602.5Z" fill="#F2AA6B" fill-opacity="0.5"/>
<path d="M287.611 73.1514C287.849 77.483 287.506 79.5174 287.245 80.399C289.224 75.5651 302.751 42.8362 312 28.5C322 13 341 15 341 15C341 15 325.5 14 314 42.5C304.516 66.0043 292.311 76.9258 288.324 80.0324C294.49 75.5371 320.578 56.6501 332 50.5C345 43.5 366 52 366 52C366 52 340 47.5 328.5 63.5C317 79.5 287 81 287 81C287 81 287 78.1908 287.611 73.1514C287.338 68.1891 286.301 60.2121 283.5 47.5C277 18 312 4 312 4C312 4 306 11.5 296.5 37.5C290.806 53.083 288.525 65.6127 287.611 73.1514Z" fill="#755F5F"/>
<path d="M287 81C287 81 290 77 283.5 47.5C277 18 312 4 312 4C312 4 306 11.5 296.5 37.5C287 63.5 287 81 287 81ZM287 81C287 81 302 44 312 28.5C322 13 341 15 341 15C341 15 325.5 14 314 42.5C302.5 71 287 81 287 81ZM287 81C287 81 319 57.5 332 50.5C345 43.5 366 52 366 52C366 52 340 47.5 328.5 63.5C317 79.5 287 81 287 81Z" stroke="#311919" stroke-width="3"/>
<g filter="url(#filter0_f_4_22)">
<ellipse cx="309.5" cy="146.5" rx="8.5" ry="4.5" fill="#FFD89D" fill-opacity="0.64"/>
</g>
<g style="mix-blend-mode:overlay" filter="url(#filter1_f_4_22)">
<ellipse cx="311" cy="151" rx="16" ry="14" fill="white"/>
</g>
<defs>
<filter id="filter0_f_4_22" x="297" y="138" width="25" height="17" filterUnits="userSpaceOnUse" color-interpolation-filters="sRGB">
<feFlood flood-opacity="0" result="BackgroundImageFix"/>
<feBlend mode="normal" in="SourceGraphic" in2="BackgroundImageFix" result="shape"/>
<feGaussianBlur stdDeviation="2" result="effect1_foregroundBlur_4_22"/>
</filter>
<filter id="filter1_f_4_22" x="291" y="133" width="40" height="36" filterUnits="userSpaceOnUse" color-interpolation-filters="sRGB">
<feFlood flood-opacity="0" result="BackgroundImageFix"/>
<feBlend mode="normal" in="SourceGraphic" in2="BackgroundImageFix" result="shape"/>
<feGaussianBlur stdDeviation="2" result="effect1_foregroundBlur_4_22"/>
</filter>
</defs>
</svg>
